<svg width="448" height="512" xmlns="http://www.w3.org/2000/svg" fill="#333333">
 <g>
  <title>Layer 1</title>
  <path id="svg_1" d="m0,96c0,-17.67 14.33,-32 32,-32l384,0c17.7,0 32,14.33 32,32c0,17.7 -14.3,32 -32,32l-384,0c-17.67,0 -32,-14.3 -32,-32zm0,160c0,-17.7 14.33,-32 32,-32l384,0c17.7,0 32,14.3 32,32c0,17.7 -14.3,32 -32,32l-384,0c-17.67,0 -32,-14.3 -32,-32zm416,192l-384,0c-17.67,0 -32,-14.3 -32,-32c0,-17.7 14.33,-32 32,-32l384,0c17.7,0 32,14.3 32,32c0,17.7 -14.3,32 -32,32z"/>
 </g>
</svg>